<svg width="297" height="103" viewBox="0 0 297 103" fill="none" xmlns="http://www.w3.org/2000/svg">
<g opacity="0.05">
<path d="M98.356 77.0601V59.6061H88.766V48.6401H82.8V41.6401H88.766V32.5571H83.384V25.5571H88.766V20.1851H68.462V18.9351H88.766V17.5601H67.796V25.8931H67.292V29.0561H62.966V25.8931H57.796V22.0601H56.3V15.0601H57.795V10.3931H67.795V15.0601H88.765V3.93408H54.653L45.537 16.9351H55.274V18.1851H44.661L43.697 19.5601H53.275V22.0601H41.944L32.391 35.6851H50.213V41.3101H28.447L14.245 61.5641V69.3781H49.605V71.2581H14.245V75.8101H77.285V77.0601H14.245V81.3101H24.962V85.5601H14.245V88.1781H55.932V91.8101H79.462V99.0601H55.932V102.829H88.766V88.1791H98.356V81.9341H91.514V77.0611H98.356V77.0601ZM23.875 66.2231H19.549V61.8971H23.875V66.2231ZM34.462 63.1061H27.462V56.1061H34.462V63.1061ZM69.212 61.4351H57.087V59.6061H48.22L57.087 46.0591V40.9361H69.212V61.4351ZM79.449 40.9731H75.123V36.6471H79.449V40.9731Z" fill="#59FFD1"/>
<path d="M187.689 61.835C188.062 58.496 188.26 54.973 188.26 51.251C188.26 41.296 186.898 32.707 184.266 25.557H153.462V20.684H182.176C175.51 7.39102 163.5 0.338013 146.804 0.338013C136.973 0.338013 128.773 2.79201 122.325 7.51701H162.129V10.017H119.307C117.472 11.726 115.819 13.666 114.335 15.81H124.462V22.06H110.786C107.205 29.839 105.349 39.614 105.349 51.251C105.349 53.365 105.424 55.403 105.545 57.394H116.463V72.061H107.802C108.262 73.795 108.775 75.469 109.361 77.061H138.079V81.934H111.453C112.134 83.292 112.872 84.584 113.663 85.811H157.463V88.311H115.435C122.461 97.474 133.035 102.296 146.805 102.296C169.942 102.296 184.073 88.708 187.459 63.716H166.29V61.836H187.689V61.835ZM164.544 12.017H168.837V16.31H164.544V12.017ZM163.212 65.56V75.56H147.462V71.289C147.243 71.301 147.035 71.326 146.804 71.326C138.884 71.326 137.382 64.27 137.382 51.25C137.382 39.399 138.658 32.54 144.962 31.472V27.81H163.962V41.06H155.532C155.879 43.404 156.03 46.173 156.073 49.31H167.463V53.06H156.079C156.014 58.336 155.639 62.526 154.592 65.56H163.212Z" fill="#59FFD1"/>
<path d="M270.705 10.017H256.462V11.392H270.705V10.017Z" fill="#59FFD1"/>
<path d="M270.706 59.606V41.096H266.958V34.096H270.706V25.013H267.542V18.013H270.706V12.641H256.463V31.559H243.713V20.809H243.213V14.516H240.458V7.51599H243.213V3.93298H236.595L232.768 9.39099H239.433V10.641H231.891L230.927 12.016H237.433V14.516H229.174L224.235 21.559H241.713V28.309H219.502L213.191 37.309H228.213V60.059H197.239L196.184 61.563V61.834H233.762V63.714H196.184V68.266H261.443V69.516H196.184V74.809H221.962V84.059H196.184V88.177H237.872V94.809H252.713V97.559H237.872V102.828H270.706V88.178H280.296V59.606H270.706ZM252.462 63.06H237.462V59.606H230.159L237.462 48.449V41.56H252.462V63.06ZM263.606 33.43H259.28V29.104H263.606V33.43Z" fill="#59FFD1"/>
<path d="M270.705 3.93408H256.462V7.51707H270.705V3.93408Z" fill="#59FFD1"/>
<path d="M9.81304 56.106H0.337036V63.106H9.81304V56.106Z" fill="#59FFD1"/>
<path d="M97.675 22.057H90.675V29.057H97.675V22.057Z" fill="#59FFD1"/>
<path d="M103.865 26.064H99.5391V30.39H103.865V26.064Z" fill="#59FFD1"/>
<path d="M196.712 39.063H193.97V46.063H196.712V39.063Z" fill="#59FFD1"/>
<path d="M281.833 14.5131H274.833V21.5131H281.833V14.5131Z" fill="#59FFD1"/>
<path d="M288.022 18.52H283.696V22.846H288.022V18.52Z" fill="#59FFD1"/>
<path d="M206.959 32.557H202.633V36.883H206.959V32.557Z" fill="#59FFD1"/>
<path d="M186.337 12.017H182.044V16.31H186.337V12.017Z" fill="#59FFD1"/>
</g>
<g opacity="0.1556">
<path d="M98.578 77.0601V59.6061H88.988V48.6401H83.023V41.6401H88.988V32.5571H83.606V25.5571H88.988V20.1851H68.684V18.9351H88.988V17.5601H67.795V25.8931H67.514V29.0561H63.188V25.8931H57.796V22.0601H56.523V15.0601H57.796V10.3931H67.796V15.0601H88.989V3.93408H54.877L45.761 16.9351H55.498V18.1851H44.885L43.921 19.5601H53.498V22.0601H42.167L32.614 35.6851H50.213V41.3101H28.669L14.467 61.5641V69.3781H49.827V71.2581H14.467V75.8101H77.507V77.0601H14.467V81.3101H24.962V85.5601H14.467V88.1781H56.154V91.8101H79.462V99.0601H56.154V102.829H88.988V88.1791H98.578V81.9341H91.736V77.0611H98.578V77.0601ZM24.098 66.2231H19.772V61.8971H24.098V66.2231ZM34.685 63.1061H27.685V56.1061H34.685V63.1061ZM69.212 61.4351H57.087V59.6061H48.442L57.087 46.3981V40.9351H69.212V61.4351ZM79.671 40.9731H75.345V36.6471H79.671V40.9731Z" fill="#59FFD1"/>
<path d="M187.912 61.835C188.285 58.496 188.483 54.973 188.483 51.251C188.483 41.296 187.121 32.707 184.49 25.557H153.686V20.684H182.4C175.734 7.39102 163.724 0.338013 147.028 0.338013C137.197 0.338013 128.996 2.79201 122.549 7.51701H162.353V10.017H119.53C117.695 11.726 116.042 13.666 114.558 15.81H124.462V22.06H111.008C107.427 29.839 105.571 39.614 105.571 51.251C105.571 53.365 105.646 55.403 105.767 57.394H116.463V72.061H108.024C108.484 73.795 108.996 75.469 109.583 77.061H138.3V81.934H111.675C112.356 83.292 113.094 84.584 113.885 85.811H157.685V88.311H115.657C122.683 97.474 133.257 102.296 147.027 102.296C170.163 102.296 184.295 88.708 187.681 63.716H166.512V61.836H187.912V61.835ZM164.766 12.017H169.059V16.31H164.766V12.017ZM163.212 65.56V75.56H147.462V71.302C147.314 71.307 147.179 71.327 147.027 71.327C139.107 71.327 137.605 64.271 137.605 51.251C137.605 39.542 138.853 32.709 144.962 31.515V27.81H163.962V41.06H155.754C156.102 43.404 156.252 46.173 156.295 49.31H167.462V53.06H156.3C156.235 58.336 155.86 62.526 154.813 65.56H163.212Z" fill="#59FFD1"/>
<path d="M270.927 3.93408H256.462V7.51707H270.927V3.93408Z" fill="#59FFD1"/>
<path d="M270.927 10.017H256.462V11.392H270.927V10.017Z" fill="#59FFD1"/>
<path d="M270.928 59.606V41.096H267.18V34.096H270.928V25.013H267.764V18.013H270.928V12.641H256.463V31.559H243.713V20.809H243.213V14.516H240.681V7.51599H243.213V3.93298H236.817L232.99 9.39099H239.655V10.641H232.113L231.149 12.016H237.655V14.516H229.396L224.457 21.559H241.713V28.309H219.724L213.413 37.309H228.212V60.059H197.46L196.405 61.563V61.834H233.983V63.714H196.405V68.266H261.664V69.516H196.405V74.809H221.961V84.059H196.405V88.177H238.093V94.809H252.712V97.559H238.093V102.828H270.927V88.178H280.517V59.606H270.928ZM252.462 63.06H237.462V59.606H230.381L237.462 48.788V41.56H252.462V63.06ZM263.828 33.43H259.502V29.104H263.828V33.43Z" fill="#59FFD1"/>
<path d="M10.0361 56.106H0.560059V63.106H10.0361V56.106Z" fill="#59FFD1"/>
<path d="M97.8981 22.057H90.8981V29.057H97.8981V22.057Z" fill="#59FFD1"/>
<path d="M104.087 26.064H99.7611V30.39H104.087V26.064Z" fill="#59FFD1"/>
<path d="M196.713 39.063H194.193V46.063H196.713V39.063Z" fill="#59FFD1"/>
<path d="M282.055 14.5131H275.055V21.5131H282.055V14.5131Z" fill="#59FFD1"/>
<path d="M288.244 18.52H283.918V22.846H288.244V18.52Z" fill="#59FFD1"/>
<path d="M207.181 32.557H202.855V36.883H207.181V32.557Z" fill="#59FFD1"/>
<path d="M186.559 12.017H182.266V16.31H186.559V12.017Z" fill="#59FFD1"/>
</g>
<g opacity="0.2611">
<path d="M98.7999 77.0601V59.6061H89.2099V48.6401H83.2439V41.6401H89.2099V32.5571H83.8279V25.5571H89.2099V20.1851H68.9059V18.9351H89.2099V17.5601H67.7949V25.8931H67.7359V29.0561H63.4099V25.8931H57.7949V22.0601H56.7439V15.0601H57.7949V10.3931H67.7949V15.0601H89.2099V3.93408H55.0979L45.9819 16.9351H55.7189V18.1851H45.1059L44.1419 19.5601H53.7199V22.0601H42.3899L32.8359 35.6851H50.2129V41.3101H28.8919L14.6899 61.5641V69.3781H50.0499V71.2581H14.6899V75.8101H77.7299V77.0601H14.6899V81.3101H24.9629V85.5601H14.6899V88.1781H56.3769V91.8101H79.4629V99.0601H56.3769V102.829H89.2109V88.1791H98.8009V81.9341H91.9589V77.0611H98.7999V77.0601ZM24.3199 66.2231H19.9939V61.8971H24.3199V66.2231ZM34.9069 63.1061H27.9069V56.1061H34.9069V63.1061ZM69.2119 61.4351H57.0869V59.6061H48.6639L57.0869 46.7381V40.9351H69.2119V61.4351ZM79.8929 40.9731H75.5669V36.6471H79.8929V40.9731Z" fill="#59FFD1"/>
<path d="M188.134 61.835C188.507 58.496 188.705 54.973 188.705 51.251C188.705 41.296 187.343 32.707 184.712 25.557H153.908V20.684H182.622C175.956 7.39102 163.946 0.338013 147.25 0.338013C137.419 0.338013 129.219 2.79201 122.771 7.51701H162.574V10.017H119.753C117.917 11.726 116.264 13.666 114.781 15.81H124.463V22.06H111.23C107.649 29.839 105.793 39.614 105.793 51.251C105.793 53.365 105.868 55.403 105.989 57.394H116.462V72.061H108.245C108.705 73.795 109.218 75.469 109.804 77.061H138.522V81.934H111.896C112.577 83.292 113.315 84.584 114.106 85.811H157.906V88.311H115.878C122.904 97.474 133.478 102.296 147.248 102.296C170.384 102.296 184.516 88.708 187.902 63.716H166.733V61.836H188.134V61.835ZM164.988 12.017H169.281V16.31H164.988V12.017ZM163.212 65.56V75.56H147.462V71.315C147.389 71.316 147.323 71.327 147.249 71.327C139.329 71.327 137.827 64.271 137.827 51.251C137.827 39.684 139.043 32.872 144.962 31.558V27.81H163.962V41.06H155.976C156.324 43.404 156.474 46.173 156.517 49.31H167.462V53.06H156.522C156.458 58.336 156.082 62.526 155.035 65.56H163.212Z" fill="#59FFD1"/>
<path d="M271.15 10.017H256.462V11.392H271.15V10.017Z" fill="#59FFD1"/>
<path d="M271.15 3.93408H256.462V7.51707H271.15V3.93408Z" fill="#59FFD1"/>
<path d="M271.15 59.606V41.096H267.402V34.096H271.15V25.013H267.986V18.013H271.15V12.641H256.462V31.559H243.712V20.809H243.212V14.516H240.902V7.51599H243.212V3.93298H237.038L233.211 9.39099H239.876V10.641H232.334L231.37 12.016H237.876V14.516H229.617L224.678 21.559H241.711V28.309H219.945L213.634 37.309H228.211V60.059H197.682L196.627 61.563V61.834H234.205V63.714H196.627V68.266H261.886V69.516H196.627V74.809H221.961V84.059H196.627V88.177H238.315V94.809H252.711V97.559H238.315V102.828H271.149V88.178H280.739V59.606H271.15ZM252.462 63.06H237.462V59.606H230.604L237.462 49.128V41.56H252.462V63.06ZM264.05 33.43H259.724V29.104H264.05V33.43Z" fill="#59FFD1"/>
<path d="M10.258 56.106H0.781982V63.106H10.258V56.106Z" fill="#59FFD1"/>
<path d="M98.12 22.057H91.12V29.057H98.12V22.057Z" fill="#59FFD1"/>
<path d="M104.309 26.064H99.983V30.39H104.309V26.064Z" fill="#59FFD1"/>
<path d="M196.712 39.063H194.415V46.063H196.712V39.063Z" fill="#59FFD1"/>
<path d="M282.277 14.5131H275.277V21.5131H282.277V14.5131Z" fill="#59FFD1"/>
<path d="M288.467 18.52H284.141V22.846H288.467V18.52Z" fill="#59FFD1"/>
<path d="M207.403 32.557H203.077V36.883H207.403V32.557Z" fill="#59FFD1"/>
<path d="M186.781 12.017H182.488V16.31H186.781V12.017Z" fill="#59FFD1"/>
</g>
<g opacity="0.3667">
<path d="M99.0231 77.0601V59.6061H89.4331V48.6401H83.4671V41.6401H89.4331V32.5571H84.0511V25.5571H89.4331V20.1851H69.1291V18.9351H89.4331V17.5601H67.7961V24.7301H67.9591V29.0561H63.6331V25.8931H57.7961V22.0601H56.9671V15.0601H57.7961V10.3931H67.7961V15.0601H89.4331V3.93408H55.3211L46.2051 16.9351H55.9421V18.1851H45.3291L44.3651 19.5601H53.9431V22.0601H42.6131L33.0601 35.6851H50.2151V41.3101H29.1161L14.9141 61.5641V69.3781H50.2741V71.2581H14.9141V75.8101H77.9541V77.0601H14.9141V81.3101H24.9651V85.5601H14.9141V88.1781H56.6011V91.8101H79.4651V99.0601H56.6011V102.829H89.4351V88.1791H99.0251V81.9341H92.1831V77.0611H99.0231V77.0601ZM24.5421 66.2231H20.2161V61.8971H24.5421V66.2231ZM35.1291 63.1061H28.1291V56.1061H35.1291V63.1061ZM69.2121 61.4351H57.0871V59.6061H48.8861L57.0871 47.0771V40.9351H69.2121V61.4351ZM80.1151 40.9731H75.7891V36.6471H80.1151V40.9731Z" fill="#59FFD1"/>
<path d="M188.356 61.835C188.729 58.496 188.927 54.973 188.927 51.251C188.927 41.296 187.565 32.707 184.934 25.557H154.13V20.684H182.844C176.178 7.39102 164.168 0.338013 147.472 0.338013C137.641 0.338013 129.441 2.79201 122.993 7.51701H162.797V10.017H119.975C118.139 11.726 116.487 13.666 115.003 15.81H124.463V22.06H111.453C107.872 29.839 106.016 39.614 106.016 51.251C106.016 53.365 106.091 55.403 106.212 57.394H116.463V72.061H108.468C108.928 73.795 109.441 75.469 110.027 77.061H138.745V81.934H112.119C112.8 83.292 113.538 84.584 114.329 85.811H158.129V88.311H116.101C123.127 97.474 133.701 102.296 147.471 102.296C170.607 102.296 184.739 88.708 188.125 63.716H166.956V61.836H188.356V61.835ZM165.211 12.017H169.504V16.31H165.211V12.017ZM163.212 65.56V75.56H147.462V71.326C139.55 71.32 138.049 64.266 138.049 51.25C138.049 39.824 139.229 33.031 144.962 31.6V27.809H163.962V41.059H156.198C156.546 43.403 156.696 46.172 156.739 49.309H167.462V53.059H156.744C156.68 58.335 156.304 62.525 155.257 65.559H163.212V65.56Z" fill="#59FFD1"/>
<path d="M271.372 10.017H256.462V11.392H271.372V10.017Z" fill="#59FFD1"/>
<path d="M271.372 3.93408H256.462V7.51707H271.372V3.93408Z" fill="#59FFD1"/>
<path d="M271.372 59.606V41.096H267.624V34.096H271.372V25.013H268.208V18.013H271.372V12.641H256.462V31.559H243.712V20.809H243.212V14.516H241.124V7.51599H243.212V3.93298H237.26L233.433 9.39099H240.098V10.641H232.556L231.592 12.016H238.098V14.516H229.839L224.9 21.559H241.711V28.309H220.167L213.856 37.309H228.211V60.059H197.904L196.849 61.563V61.834H234.427V63.714H196.849V68.266H262.108V69.516H196.849V74.809H221.961V84.059H196.849V88.177H238.537V94.809H252.711V97.559H238.537V102.828H271.371V88.178H280.961V59.606H271.372ZM252.462 63.06H237.462V59.606H230.826L237.462 49.467V41.56H252.462V63.06ZM264.273 33.43H259.947V29.104H264.273V33.43Z" fill="#59FFD1"/>
<path d="M10.48 56.106H1.00403V63.106H10.48V56.106Z" fill="#59FFD1"/>
<path d="M98.342 22.057H91.342V29.057H98.342V22.057Z" fill="#59FFD1"/>
<path d="M104.531 26.064H100.205V30.39H104.531V26.064Z" fill="#59FFD1"/>
<path d="M196.712 39.063H194.637V46.063H196.712V39.063Z" fill="#59FFD1"/>
<path d="M282.5 14.5131H275.5V21.5131H282.5V14.5131Z" fill="#59FFD1"/>
<path d="M288.689 18.52H284.363V22.846H288.689V18.52Z" fill="#59FFD1"/>
<path d="M207.625 32.557H203.299V36.883H207.625V32.557Z" fill="#59FFD1"/>
<path d="M187.004 12.017H182.711V16.31H187.004V12.017Z" fill="#59FFD1"/>
</g>
<g opacity="0.4722">
<path d="M99.245 77.0601V59.6061H89.655V48.6401H83.69V41.6401H89.655V32.5571H84.273V25.5571H89.655V20.1851H69.351V18.9351H89.655V17.5601H67.796V24.7301H68.181V29.0561H63.855V25.8931H57.796V22.0601H57.19V15.0601H57.796V10.3931H67.796V15.0601H89.655V3.93408H55.543L46.427 16.9351H56.164V18.1851H45.55L44.586 19.5601H54.164V22.0601H42.833L33.28 35.6851H50.213V41.3101H29.336L15.134 61.5641V69.3781H50.494V71.2581H15.134V75.8101H78.174V77.0601H15.134V81.3101H24.962V85.5601H15.134V88.1781H56.821V91.8101H79.462V99.0601H56.821V102.829H89.655V88.1791H99.245V81.9341H92.403V77.0611H99.245V77.0601ZM24.764 66.2231H20.438V61.8971H24.764V66.2231ZM35.351 63.1061H28.351V56.1061H35.351V63.1061ZM69.212 61.4351H57.087V59.6061H49.109L57.087 47.4171V40.9361H69.212V61.4351ZM80.337 40.9731H76.011V36.6471H80.337V40.9731Z" fill="#59FFD1"/>
<path d="M188.578 61.835C188.951 58.496 189.149 54.973 189.149 51.251C189.149 41.296 187.787 32.707 185.155 25.557H154.351V20.684H183.065C176.399 7.39102 164.389 0.338013 147.693 0.338013C137.862 0.338013 129.662 2.79201 123.214 7.51701H163.018V10.017H120.196C118.361 11.726 116.708 13.666 115.224 15.81H124.462V22.06H111.675C108.094 29.839 106.238 39.614 106.238 51.251C106.238 53.365 106.313 55.403 106.434 57.394H116.463V72.061H108.691C109.151 73.795 109.664 75.469 110.25 77.061H138.968V81.934H112.342C113.023 83.292 113.761 84.584 114.552 85.811H158.352V88.311H116.324C123.35 97.474 133.924 102.296 147.694 102.296C170.83 102.296 184.962 88.708 188.348 63.716H167.179V61.836H188.578V61.835ZM165.433 12.017H169.726V16.31H165.433V12.017ZM163.212 65.56V75.56H147.462V71.313C139.752 71.17 138.271 64.137 138.271 51.25C138.271 39.97 139.416 33.2 144.962 31.652V27.81H163.962V41.06H156.42C156.768 43.404 156.918 46.173 156.961 49.31H167.462V53.06H156.967C156.902 58.336 156.527 62.526 155.48 65.56H163.212Z" fill="#59FFD1"/>
<path d="M271.594 59.606V41.096H267.846V34.096H271.594V25.013H268.43V18.013H271.594V12.641H256.462V31.559H243.712V20.809H243.212V14.516H241.346V7.51599H243.212V3.93298H237.483L233.656 9.39099H240.321V10.641H232.779L231.815 12.016H238.321V14.516H230.062L225.123 21.559H241.712V28.309H220.39L214.079 37.309H228.212V60.059H198.127L197.072 61.563V61.834H234.65V63.714H197.072V68.266H262.331V69.516H197.072V74.809H221.961V84.059H197.072V88.177H238.76V94.809H252.712V97.559H238.76V102.828H271.594V88.178H281.184V59.606H271.594ZM252.462 63.06H237.462V59.606H231.048L237.462 49.807V41.56H252.462V63.06ZM264.495 33.43H260.169V29.104H264.495V33.43Z" fill="#59FFD1"/>
<path d="M271.594 10.017H256.462V11.392H271.594V10.017Z" fill="#59FFD1"/>
<path d="M271.594 3.93408H256.462V7.51707H271.594V3.93408Z" fill="#59FFD1"/>
<path d="M10.7021 56.106H1.22607V63.106H10.7021V56.106Z" fill="#59FFD1"/>
<path d="M98.5641 22.057H91.5641V29.057H98.5641V22.057Z" fill="#59FFD1"/>
<path d="M104.754 26.064H100.428V30.39H104.754V26.064Z" fill="#59FFD1"/>
<path d="M196.712 39.063H194.859V46.063H196.712V39.063Z" fill="#59FFD1"/>
<path d="M282.722 14.5131H275.722V21.5131H282.722V14.5131Z" fill="#59FFD1"/>
<path d="M288.911 18.52H284.585V22.846H288.911V18.52Z" fill="#59FFD1"/>
<path d="M207.847 32.557H203.521V36.883H207.847V32.557Z" fill="#59FFD1"/>
<path d="M187.226 12.017H182.933V16.31H187.226V12.017Z" fill="#59FFD1"/>
</g>
<g opacity="0.5778">
<path d="M99.467 77.0601V59.6061H89.8771V48.6401H83.911V41.6401H89.8771V32.5571H84.495V25.5571H89.8771V20.1851H69.5731V18.9351H89.8771V17.5601H67.7961V24.7301H68.4041V29.0561H64.0781V25.8931H57.7971V22.0601H57.413V15.0601H57.7971V10.3931H67.7971V15.0601H89.8781V3.93408H55.7661L46.65 16.9351H56.387V18.1851H45.7741L44.8101 19.5601H54.3881V22.0601H43.0571L33.5041 35.6851H50.2141V41.3101H29.5591L15.3571 61.5641V69.3781H50.717V71.2581H15.3571V75.8101H78.3971V77.0601H15.3571V81.3101H24.9631V85.5601H15.3571V88.1781H57.0441V91.8101H79.4631V99.0601H57.0441V102.829H89.8781V88.1791H99.4681V81.9341H92.6261V77.0611H99.467V77.0601ZM24.9871 66.2231H20.6611V61.8971H24.9871V66.2231ZM35.5741 63.1061H28.5741V56.1061H35.5741V63.1061ZM69.2121 61.4351H57.0871V59.6061H49.331L57.0871 47.7561V40.9351H69.2121V61.4351ZM80.5601 40.9731H76.234V36.6471H80.5601V40.9731Z" fill="#59FFD1"/>
<path d="M188.801 61.835C189.174 58.496 189.372 54.973 189.372 51.251C189.372 41.296 188.01 32.707 185.379 25.557H154.575V20.684H183.289C176.623 7.39102 164.613 0.338013 147.917 0.338013C138.086 0.338013 129.886 2.79201 123.438 7.51701H163.242V10.017H120.42C118.585 11.726 116.932 13.666 115.448 15.81H124.464V22.06H111.899C108.318 29.839 106.462 39.614 106.462 51.251C106.462 53.365 106.537 55.403 106.658 57.394H116.465V72.061H108.915C109.375 73.795 109.888 75.469 110.474 77.061H139.192V81.934H112.566C113.247 83.292 113.985 84.584 114.776 85.811H158.576V88.311H116.548C123.574 97.474 134.148 102.296 147.918 102.296C171.054 102.296 185.186 88.708 188.572 63.716H167.403V61.836H188.801V61.835ZM165.655 12.017H169.948V16.31H165.655V12.017ZM163.212 65.56V75.56H147.462V71.3C139.951 71.023 138.494 64.009 138.494 51.25C138.494 40.129 139.616 33.403 144.962 31.731V27.809H163.962V41.059H156.643C156.991 43.403 157.141 46.172 157.184 49.309H167.463V53.059H157.19C157.126 58.335 156.75 62.525 155.703 65.559H163.212V65.56Z" fill="#59FFD1"/>
<path d="M271.816 10.017H256.462V11.392H271.816V10.017Z" fill="#59FFD1"/>
<path d="M271.817 59.606V41.096H268.069V34.096H271.817V25.013H268.653V18.013H271.817V12.641H256.463V31.559H243.713V20.809H243.213V14.516H241.57V7.51599H243.213V3.93298H237.706L233.879 9.39099H240.544V10.641H233.002L232.038 12.016H238.544V14.516H230.285L225.346 21.559H241.713V28.309H220.613L214.302 37.309H228.213V60.059H198.35L197.295 61.563V61.834H234.873V63.714H197.295V68.266H262.554V69.516H197.295V74.809H221.962V84.059H197.295V88.177H238.983V94.809H252.713V97.559H238.983V102.828H271.817V88.178H281.407V59.606H271.817ZM252.462 63.06H237.462V59.606H231.27L237.462 50.146V41.56H252.462V63.06ZM264.717 33.43H260.391V29.104H264.717V33.43Z" fill="#59FFD1"/>
<path d="M271.816 3.93408H256.462V7.51707H271.816V3.93408Z" fill="#59FFD1"/>
<path d="M10.924 56.106H1.448V63.106H10.924V56.106Z" fill="#59FFD1"/>
<path d="M98.787 22.057H91.787V29.057H98.787V22.057Z" fill="#59FFD1"/>
<path d="M104.976 26.064H100.65V30.39H104.976V26.064Z" fill="#59FFD1"/>
<path d="M196.712 39.063H195.081V46.063H196.712V39.063Z" fill="#59FFD1"/>
<path d="M282.944 14.5131H275.944V21.5131H282.944V14.5131Z" fill="#59FFD1"/>
<path d="M289.133 18.52H284.807V22.846H289.133V18.52Z" fill="#59FFD1"/>
<path d="M208.07 32.557H203.744V36.883H208.07V32.557Z" fill="#59FFD1"/>
<path d="M187.448 12.017H183.155V16.31H187.448V12.017Z" fill="#59FFD1"/>
</g>
<g opacity="0.6833">
<path d="M99.689 77.0601V59.6061H90.099V48.6401H84.134V41.6401H90.099V32.5571H84.717V25.5571H90.099V20.1851H69.795V18.9351H90.099V17.5601H67.795V24.7301H68.625V29.0561H64.299V25.8931H57.796V22.0601H57.634V15.0601H57.796V10.3931H67.796V15.0601H90.1V3.93408H55.988L46.872 16.9351H56.609V18.1851H45.996L45.032 19.5601H54.61V22.0601H43.279L33.726 35.6851H50.214V41.3101H29.78L15.578 61.5641V69.3781H50.938V71.2581H15.578V75.8101H78.618V77.0601H15.578V81.3101H24.962V85.5601H15.578V88.1781H57.265V91.8101H79.462V99.0601H57.265V102.829H90.099V88.1791H99.689V81.9341H92.847V77.0611H99.689V77.0601ZM25.209 66.2231H20.883V61.8971H25.209V66.2231ZM35.796 63.1061H28.796V56.1061H35.796V63.1061ZM69.212 61.4351H57.087V59.6061H49.553L57.087 48.0961V40.9351H69.212V61.4351ZM80.782 40.9731H76.456V36.6471H80.782V40.9731Z" fill="#59FFD1"/>
<path d="M189.023 61.835C189.396 58.496 189.594 54.973 189.594 51.251C189.594 41.296 188.232 32.707 185.6 25.557H154.796V20.684H183.51C176.844 7.39102 164.834 0.338013 148.138 0.338013C138.307 0.338013 130.106 2.79201 123.659 7.51701H163.463V10.017H120.641C118.806 11.726 117.153 13.666 115.669 15.81H124.462V22.06H112.119C108.538 29.839 106.682 39.614 106.682 51.251C106.682 53.365 106.757 55.403 106.878 57.394H116.463V72.061H109.135C109.595 73.795 110.108 75.469 110.694 77.061H139.412V81.934H112.786C113.467 83.292 114.205 84.584 114.996 85.811H158.796V88.311H116.768C123.794 97.474 134.368 102.296 148.138 102.296C171.275 102.296 185.406 88.708 188.792 63.716H167.623V61.836H189.023V61.835ZM165.877 12.017H170.17V16.31H165.877V12.017ZM167.462 53.06H157.411C157.346 58.336 156.971 62.526 155.924 65.56H163.212V75.56H147.462V71.287C140.147 70.878 138.716 63.881 138.716 51.25C138.716 40.287 139.811 33.601 144.962 31.811V27.809H163.962V41.059H156.865C157.213 43.403 157.363 46.172 157.406 49.309H167.462V53.06Z" fill="#59FFD1"/>
<path d="M272.038 10.017H256.462V11.392H272.038V10.017Z" fill="#59FFD1"/>
<path d="M272.039 59.606V41.096H268.291V34.096H272.039V25.013H268.875V18.013H272.039V12.641H256.463V31.559H243.713V20.809H243.213V14.516H241.792V7.51599H243.213V3.93298H237.928L234.101 9.39099H240.766V10.641H233.224L232.26 12.016H238.766V14.516H230.507L225.568 21.559H241.713V28.309H220.835L214.524 37.309H228.212V60.059H198.571L197.516 61.563V61.834H235.094V63.714H197.516V68.266H262.775V69.516H197.516V74.809H221.961V84.059H197.516V88.177H239.204V94.809H252.712V97.559H239.204V102.828H272.038V88.178H281.628V59.606H272.039ZM252.462 63.06H237.462V59.606H231.493L237.462 50.486V41.56H252.462V63.06ZM264.939 33.43H260.613V29.104H264.939V33.43Z" fill="#59FFD1"/>
<path d="M272.038 3.93408H256.462V7.51707H272.038V3.93408Z" fill="#59FFD1"/>
<path d="M11.147 56.106H1.67102V63.106H11.147V56.106Z" fill="#59FFD1"/>
<path d="M99.009 22.057H92.009V29.057H99.009V22.057Z" fill="#59FFD1"/>
<path d="M105.198 26.064H100.872V30.39H105.198V26.064Z" fill="#59FFD1"/>
<path d="M196.713 39.063H195.304V46.063H196.713V39.063Z" fill="#59FFD1"/>
<path d="M283.166 14.5131H276.166V21.5131H283.166V14.5131Z" fill="#59FFD1"/>
<path d="M289.356 18.52H285.03V22.846H289.356V18.52Z" fill="#59FFD1"/>
<path d="M208.292 32.557H203.966V36.883H208.292V32.557Z" fill="#59FFD1"/>
<path d="M187.67 12.017H183.377V16.31H187.67V12.017Z" fill="#59FFD1"/>
</g>
<g opacity="0.7889">
<path d="M99.911 77.0601V59.6061H90.321V48.6401H84.355V41.6401H90.321V32.5571H84.939V25.5571H90.321V20.1851H70.017V18.9351H90.321V17.5601H67.795V24.7301H68.847V29.0561H64.521V25.8931H57.795V10.3931H67.795V15.0601H90.321V3.93408H56.21L47.094 16.9351H56.831V18.1851H46.218L45.254 19.5601H54.831V22.0601H43.5L33.947 35.6851H50.213V41.3101H30.003L15.801 61.5641V69.3781H51.161V71.2581H15.801V75.8101H78.841V77.0601H15.801V81.3101H24.963V85.5601H15.801V88.1781H57.488V91.8101H79.463V99.0601H57.488V102.829H90.322V88.1791H99.912V81.9341H93.07V77.0611H99.911V77.0601ZM25.431 66.2231H21.105V61.8971H25.431V66.2231ZM36.018 63.1061H29.018V56.1061H36.018V63.1061ZM69.212 61.4351H57.087V59.6061H49.775L57.087 48.4351V40.9351H69.212V61.4351ZM81.004 40.9731H76.678V36.6471H81.004V40.9731Z" fill="#59FFD1"/>
<path d="M189.245 61.835C189.618 58.496 189.816 54.973 189.816 51.251C189.816 41.296 188.454 32.707 185.823 25.557H155.019V20.684H183.733C177.067 7.39102 165.057 0.338013 148.361 0.338013C138.53 0.338013 130.329 2.79201 123.882 7.51701H163.686V10.017H120.864C119.028 11.726 117.376 13.666 115.892 15.81H124.463V22.06H112.342C108.761 29.839 106.905 39.614 106.905 51.251C106.905 53.365 106.98 55.403 107.101 57.394H116.463V72.061H109.357C109.817 73.795 110.33 75.469 110.916 77.061H139.634V81.934H113.009C113.69 83.292 114.428 84.584 115.219 85.811H159.019V88.311H116.99C124.016 97.474 134.59 102.296 148.36 102.296C171.497 102.296 185.628 88.708 189.014 63.716H167.845V61.836H189.245V61.835ZM166.099 12.017H170.392V16.31H166.099V12.017ZM167.462 53.06H157.633C157.568 58.336 157.193 62.526 156.146 65.56H163.212V75.56H147.462V71.274C140.339 70.737 138.938 63.753 138.938 51.25C138.938 40.446 140.001 33.795 144.962 31.891V27.81H163.962V41.06H157.087C157.435 43.404 157.585 46.173 157.628 49.31H167.462V53.06Z" fill="#59FFD1"/>
<path d="M272.261 10.017H256.462V11.392H272.261V10.017Z" fill="#59FFD1"/>
<path d="M272.261 59.606V41.096H268.513V34.096H272.261V25.013H269.097V18.013H272.261V12.641H256.462V31.559H243.712V20.809H243.212V14.516H242.013V7.51599H243.212V3.93298H238.149L234.322 9.39099H240.987V10.641H233.445L232.481 12.016H238.987V14.516H230.728L225.789 21.559H241.711V28.309H221.056L214.745 37.309H228.211V60.059H198.793L197.738 61.563V61.834H235.316V63.714H197.74V68.266H262.999V69.516H197.74V74.809H221.963V84.059H197.74V88.177H239.428V94.809H252.713V97.559H239.428V102.828H272.262V88.178H281.852V59.606H272.261ZM252.462 63.06H237.462V59.606H231.715L237.462 50.825V41.56H252.462V63.06ZM265.161 33.43H260.835V29.104H265.161V33.43Z" fill="#59FFD1"/>
<path d="M272.261 3.93408H256.462V7.51707H272.261V3.93408Z" fill="#59FFD1"/>
<path d="M11.3681 56.106H1.89307V63.106H11.3681V56.106Z" fill="#59FFD1"/>
<path d="M99.2311 22.057H92.2311V29.057H99.2311V22.057Z" fill="#59FFD1"/>
<path d="M105.42 26.064H101.094V30.39H105.42V26.064Z" fill="#59FFD1"/>
<path d="M196.712 39.063H195.526V46.063H196.712V39.063Z" fill="#59FFD1"/>
<path d="M283.388 14.5131H276.388V21.5131H283.388V14.5131Z" fill="#59FFD1"/>
<path d="M289.578 18.52H285.252V22.846H289.578V18.52Z" fill="#59FFD1"/>
<path d="M208.514 32.557H204.188V36.883H208.514V32.557Z" fill="#59FFD1"/>
<path d="M187.893 12.017H183.6V16.31H187.893V12.017Z" fill="#59FFD1"/>
</g>
<g opacity="0.8944">
<path d="M100.134 77.0601V59.6061H90.5441V48.6401H84.578V41.6401H90.5441V32.5571H85.162V25.5571H90.5441V20.1851H70.2401V18.9351H90.5441V17.5601H67.7961V24.7301H69.0701V29.0561H64.744V25.8931H57.7961V10.3931H67.7961V15.0601H90.5441V3.93408H56.4321L47.316 16.9351H57.053V18.1851H46.44L45.476 19.5601H55.054V22.0601H43.724L34.17 35.6851H50.2141V41.3101H30.226L16.024 61.5641V69.3781H51.384V71.2581H16.024V75.8101H79.064V77.0601H16.024V81.3101H24.963V85.5601H16.024V88.1781H57.711V91.8101H79.4641V99.0601H57.7101V102.829H90.5441V88.1791H100.134V81.9341H93.2921V77.0611H100.134V77.0601ZM25.653 66.2231H21.327V61.8971H25.653V66.2231ZM36.2401 63.1061H29.2401V56.1061H36.2401V63.1061ZM69.2121 61.4351H57.0871V59.6061H49.998L57.0871 48.7751V40.9351H69.2121V61.4351ZM81.226 40.9731H76.9V36.6471H81.226V40.9731Z" fill="#59FFD1"/>
<path d="M189.467 61.835C189.84 58.496 190.038 54.973 190.038 51.251C190.038 41.296 188.676 32.707 186.045 25.557H155.24V20.684H183.954C177.288 7.39102 165.278 0.338013 148.582 0.338013C138.751 0.338013 130.551 2.79201 124.103 7.51701H163.907V10.017H121.085C119.25 11.726 117.597 13.666 116.113 15.81H124.462V22.06H112.563C108.982 29.839 107.126 39.614 107.126 51.251C107.126 53.365 107.201 55.403 107.322 57.394H116.462V72.061H109.578C110.038 73.795 110.551 75.469 111.137 77.061H139.855V81.934H113.23C113.911 83.292 114.649 84.584 115.44 85.811H159.24V88.311H117.212C124.238 97.474 134.812 102.296 148.582 102.296C171.718 102.296 185.85 88.708 189.236 63.716H168.067V61.836H189.467V61.835ZM166.322 12.017H170.615V16.31H166.322V12.017ZM167.462 53.06H157.855C157.79 58.336 157.415 62.526 156.368 65.56H163.212V75.56H147.462V71.261C140.528 70.598 139.16 63.625 139.16 51.25C139.16 40.605 140.186 33.984 144.962 31.97V27.809H163.962V41.059H157.309C157.657 43.403 157.807 46.172 157.85 49.309H167.462V53.06Z" fill="#59FFD1"/>
<path d="M272.483 10.017H256.462V11.392H272.483V10.017Z" fill="#59FFD1"/>
<path d="M272.483 3.93408H256.462V7.51707H272.483V3.93408Z" fill="#59FFD1"/>
<path d="M272.483 59.606V41.096H268.735V34.096H272.483V25.013H269.319V18.013H272.483V12.641H256.462V31.559H243.712V20.809H243.212V14.516H242.235V7.51599H243.212V3.93298H238.372L234.545 9.39099H241.21V10.641H233.668L232.704 12.016H239.21V14.516H230.951L226.012 21.559H241.712V28.309H221.279L214.968 37.309H228.212V60.059H199.016L197.961 61.563V61.834H235.539V63.714H197.961V68.266H263.22V69.516H197.961V74.809H221.962V84.059H197.961V88.177H239.649V94.809H252.712V97.559H239.649V102.828H272.483V88.178H282.073V59.606H272.483ZM252.462 63.06H237.462V59.606H231.937L237.462 51.165V41.56H252.462V63.06ZM265.384 33.43H261.058V29.104H265.384V33.43Z" fill="#59FFD1"/>
<path d="M11.591 56.106H2.11499V63.106H11.591V56.106Z" fill="#59FFD1"/>
<path d="M99.453 22.057H92.453V29.057H99.453V22.057Z" fill="#59FFD1"/>
<path d="M105.643 26.064H101.317V30.39H105.643V26.064Z" fill="#59FFD1"/>
<path d="M196.712 39.063H195.748V46.063H196.712V39.063Z" fill="#59FFD1"/>
<path d="M283.611 14.5131H276.611V21.5131H283.611V14.5131Z" fill="#59FFD1"/>
<path d="M289.8 18.52H285.474V22.846H289.8V18.52Z" fill="#59FFD1"/>
<path d="M208.736 32.557H204.41V36.883H208.736V32.557Z" fill="#59FFD1"/>
<path d="M188.115 12.017H183.822V16.31H188.115V12.017Z" fill="#59FFD1"/>
</g>
<path d="M100.356 77.0601V59.6061H90.7661V48.6401H84.8001V41.6401H90.7661V32.5571H85.3841V25.5571H90.7661V20.1851H70.4621V18.9351H90.7661V17.5601H67.7961V24.7301H69.2921V29.0561H64.9661V25.8931H57.7961V10.3931H67.7961V15.0601H90.7661V3.93408H56.6541L47.5381 16.9351H57.2751V18.1851H46.6621L45.6981 19.5601H55.2761V22.0601H43.9451L34.3921 35.6851H50.2141V41.3101H30.4481L16.2461 61.5641V69.3781H51.6061V71.2581H16.2461V75.8101H79.2861V77.0601H16.2461V81.3101H24.9631V85.5601H16.2461V88.1781H57.9331V91.8101H79.4631V99.0601H57.9331V102.829H90.7671V88.1791H100.357V81.9341H93.5151V77.0611H100.356V77.0601ZM25.8751 66.2231H21.5491V61.8971H25.8751V66.2231ZM36.4621 63.1061H29.4621V56.1061H36.4621V63.1061ZM69.2121 61.4351H57.0871V59.6061H50.2201L57.0871 49.1141V40.9351H69.2121V61.4351ZM81.4491 40.9731H77.1231V36.6471H81.4491V40.9731Z" fill="#59FFD1"/>
<path d="M189.689 61.835C190.062 58.496 190.26 54.973 190.26 51.251C190.26 41.296 188.898 32.707 186.266 25.557H155.462V20.684H184.176C177.51 7.39102 165.5 0.338013 148.804 0.338013C138.973 0.338013 130.773 2.79201 124.325 7.51701H164.129V10.017H121.307C119.472 11.726 117.819 13.666 116.335 15.81H124.462V22.06H112.786C109.205 29.839 107.349 39.614 107.349 51.251C107.349 53.365 107.424 55.403 107.545 57.394H116.463V72.061H109.802C110.262 73.795 110.775 75.469 111.361 77.061H140.079V81.934H113.453C114.134 83.292 114.872 84.584 115.663 85.811H159.463V88.311H117.435C124.461 97.474 135.035 102.296 148.805 102.296C171.942 102.296 186.073 88.708 189.459 63.716H168.29V61.836H189.689V61.835ZM166.544 12.017H170.837V16.31H166.544V12.017ZM167.462 53.06H158.078C158.013 58.336 157.638 62.526 156.591 65.56H163.213V75.56H147.463V71.248C140.715 70.463 139.383 63.497 139.383 51.25C139.383 40.766 140.371 34.178 144.963 32.057V27.81H163.963V41.06H157.533C157.88 43.404 158.031 46.173 158.074 49.31H167.464V53.06H167.462Z" fill="#59FFD1"/>
<path d="M272.705 10.017H256.462V11.392H272.705V10.017Z" fill="#59FFD1"/>
<path d="M272.706 59.606V41.096H268.958V34.096H272.706V25.013H269.542V18.013H272.706V12.641H256.463V31.559H243.713V20.809H243.213V14.516H242.458V7.51599H243.213V3.93298H238.595L234.768 9.39099H241.433V10.641H233.891L232.927 12.016H239.433V14.516H231.174L226.235 21.559H241.713V28.309H221.502L215.191 37.309H228.213V60.059H199.239L198.184 61.563V61.834H235.762V63.714H198.184V68.266H263.443V69.516H198.184V74.809H221.962V84.059H198.184V88.177H239.872V94.809H252.713V97.559H239.872V102.828H272.706V88.178H282.296V59.606H272.706ZM252.462 63.06H237.462V59.606H232.159L237.462 51.504V41.56H252.462V63.06ZM265.606 33.43H261.28V29.104H265.606V33.43Z" fill="#59FFD1"/>
<path d="M272.705 3.93408H256.462V7.51707H272.705V3.93408Z" fill="#59FFD1"/>
<path d="M11.813 56.106H2.33704V63.106H11.813V56.106Z" fill="#59FFD1"/>
<path d="M99.675 22.057H92.675V29.057H99.675V22.057Z" fill="#59FFD1"/>
<path d="M105.865 26.064H101.539V30.39H105.865V26.064Z" fill="#59FFD1"/>
<path d="M196.712 39.063H195.97V46.063H196.712V39.063Z" fill="#59FFD1"/>
<path d="M283.833 14.5131H276.833V21.5131H283.833V14.5131Z" fill="#59FFD1"/>
<path d="M290.022 18.52H285.696V22.846H290.022V18.52Z" fill="#59FFD1"/>
<path d="M208.959 32.557H204.633V36.883H208.959V32.557Z" fill="#59FFD1"/>
<path d="M188.337 12.017H184.044V16.31H188.337V12.017Z" fill="#59FFD1"/>
<g opacity="0.05">
<path d="M96.7661 48.6401H90.8001V41.6401H96.7661V32.5571H91.3841V25.5571H96.7661V20.1851H76.4621V18.9351H96.7661V17.5601H73.1291V15.0601H96.7661V5.06006H61.8641L53.5381 16.9351H63.2751V18.1851H52.6621L51.6981 19.5601H61.2761V22.0601H49.9451L22.2461 61.5641V69.3781H57.6061V71.2581H22.2461V75.8101H85.2861V77.0601H22.2461V86.3101H62.4631V88.1781H63.9331V102.06H96.7671V88.1781H106.357V81.9331H99.5151V77.0601H106.357V59.606H96.7671L96.7661 48.6401ZM31.8761 66.2231H27.5501V61.8971H31.8761V66.2231ZM42.4621 63.106H35.4621V56.106H42.4621V63.106ZM64.3001 15.0601H71.3001V22.0601H64.3001V15.0601ZM66.3301 59.606H56.2201L66.3291 44.1611V59.606H66.3301ZM75.2921 29.0571H74.2121V31.0601H62.2121V23.0601H74.2121V24.7301H75.2921V29.0571ZM87.4491 40.9731H84.9631V43.0601H75.7131V35.8101H84.9631V36.6471H87.4491V40.9731Z" fill="#CB193B"/>
<path d="M195.689 61.835C196.062 58.496 196.26 54.973 196.26 51.251C196.26 41.296 194.898 32.707 192.266 25.557H161.462V20.684H190.176C183.51 7.39102 171.5 0.338013 154.804 0.338013C144.973 0.338013 136.773 2.79201 130.325 7.51701H170.129V10.017H127.307C118.176 18.52 113.348 32.466 113.348 51.251C113.348 61.254 114.716 69.883 117.359 77.061H146.077V81.934H144.462V83.311H120.188C120.659 84.169 121.144 85.009 121.661 85.811H165.461V88.311H123.433C130.459 97.474 141.033 102.296 154.803 102.296C177.94 102.296 192.071 88.708 195.457 63.716H174.29V61.836H195.689V61.835ZM172.544 12.017H176.837V16.31H172.544V12.017ZM154.805 71.327C146.885 71.327 145.383 64.271 145.383 51.251C145.383 38.317 146.884 31.308 154.805 31.308C162.612 31.308 164.093 38.317 164.093 51.251C164.092 64.271 162.612 71.327 154.805 71.327Z" fill="#CB193B"/>
<path d="M246.928 65.685C242.816 64.802 238.631 64.033 234.465 63.715H204.184V65.685H246.928Z" fill="#CB193B"/>
<path d="M278.706 59.606V41.0961H274.958V34.0961H278.706V25.0131H275.542V18.0131H278.706V12.6411H260.62V11.3911H278.706V10.0161H257.287V7.51607H278.706V4.39307H244.272L240.767 9.39107H247.432V10.6411H239.89L238.926 12.0161H245.432V14.5161H237.173L204.184 61.563V61.8341H241.762V63.1711C244.842 63.7141 247.903 64.3851 250.928 65.0421C251.859 65.2441 252.787 65.4591 253.713 65.6841H260.775L254.806 59.7151C254.122 59.0311 255.183 57.9701 255.867 58.6541L262.898 65.6851H267.837V68.2671H269.442V69.5171H267.837V70.6241L268.618 71.4051C268.807 71.5941 268.854 71.81 268.822 72.011C269.059 72.122 269.294 72.2361 269.537 72.3371C270.417 72.7041 270.029 74.1551 269.138 73.7841C268.692 73.5981 268.262 73.391 267.838 73.175V74.8111H204.185V85.3111H245.213V88.179H245.872V99.8111H278.706V88.179H288.296V59.6071H278.706V59.606ZM216.033 58.6801H211.707V54.3541H216.033V58.6801ZM226.62 55.563H219.62V48.563H226.62V55.563ZM248.269 59.606H238.16L248.269 44.1611V59.606ZM248.458 14.5171V7.51706H255.458V14.5171H248.458ZM259.45 21.5131H255.124V17.1871H259.45V21.5131ZM271.606 33.4301H268.463V36.5601H260.463V25.5601H268.463V29.1031H271.606V33.4301Z" fill="#CB193B"/>
<path d="M17.813 56.106H8.33704V63.106H17.813V56.106Z" fill="#CB193B"/>
<path d="M105.675 22.057H98.675V29.057H105.675V22.057Z" fill="#CB193B"/>
<path d="M111.865 26.064H107.539V30.39H111.865V26.064Z" fill="#CB193B"/>
<path d="M211.446 39.063H201.97V46.063H211.446V39.063Z" fill="#CB193B"/>
<path d="M289.833 14.5131H282.833V21.5131H289.833V14.5131Z" fill="#CB193B"/>
<path d="M296.022 18.52H291.696V22.846H296.022V18.52Z" fill="#CB193B"/>
<path d="M214.959 32.557H210.633V36.883H214.959V32.557Z" fill="#CB193B"/>
<path d="M194.337 12.017H190.044V16.31H194.337V12.017Z" fill="#CB193B"/>
</g>
<g opacity="0.1556">
<path d="M96.322 48.6401H90.356V41.6401H96.322V32.5571H90.94V25.5571H96.322V20.1851H76.018V18.9351H96.322V17.5601H72.685V15.0601H96.322V5.06006H61.42L53.093 16.9351H62.83V18.1851H52.217L51.253 19.5601H60.83V22.0601H49.5L21.801 61.5641V69.3781H57.161V71.2581H21.801V75.8101H84.841V77.0601H21.801V86.3101H62.463V88.1781H63.488V102.06H96.322V88.1781H105.912V81.9331H99.07V77.0601H105.912V59.606H96.322V48.6401ZM31.431 66.2231H27.105V61.8971H31.431V66.2231ZM42.018 63.106H35.018V56.106H42.018V63.106ZM63.856 15.0601H70.856V22.0601H63.856V15.0601ZM65.885 59.606H55.776L65.885 44.1611V59.606ZM74.848 29.0571H74.213V31.0601H62.213V23.0601H74.213V24.7301H74.848V29.0571ZM87.004 40.9731H84.962V43.0601H75.712V35.8101H84.962V36.6471H87.004V40.9731Z" fill="#CB193B"/>
<path d="M195.245 61.835C195.618 58.496 195.816 54.973 195.816 51.251C195.816 41.296 194.454 32.707 191.823 25.557H161.019V20.684H189.733C183.067 7.39102 171.057 0.338013 154.361 0.338013C144.53 0.338013 136.329 2.79201 129.882 7.51701H169.686V10.017H126.864C117.733 18.52 112.905 32.466 112.905 51.251C112.905 61.254 114.273 69.883 116.916 77.061H145.634V81.934H144.463V83.311H119.745C120.216 84.169 120.701 85.009 121.218 85.811H165.018V88.311H122.99C130.016 97.474 140.59 102.296 154.36 102.296C177.497 102.296 191.628 88.708 195.014 63.716H173.845V61.836H195.245V61.835ZM172.099 12.017H176.392V16.31H172.099V12.017ZM154.36 71.327C146.44 71.327 144.938 64.271 144.938 51.251C144.938 38.317 146.439 31.308 154.36 31.308C162.167 31.308 163.648 38.317 163.648 51.251C163.648 64.271 162.167 71.327 154.36 71.327Z" fill="#CB193B"/>
<path d="M246.928 65.685C242.816 64.802 238.631 64.033 234.465 63.715H203.74V65.685H246.928Z" fill="#CB193B"/>
<path d="M278.261 59.606V41.0961H274.513V34.0961H278.261V25.0131H275.097V18.0131H278.261V12.6411H260.175V11.3911H278.261V10.0161H256.842V7.51607H278.261V4.39307H243.827L240.322 9.39107H246.987V10.6411H239.445L238.481 12.0161H244.987V14.5161H236.728L203.739 61.563V61.8341H241.317V63.0901C244.547 63.6451 247.756 64.3541 250.928 65.0421C251.859 65.2441 252.787 65.4591 253.713 65.6841H260.775L254.806 59.7151C254.122 59.0311 255.183 57.9701 255.867 58.6541L262.898 65.6851H267.837V68.2671H268.998V69.5171H267.837V70.6241L268.618 71.4051C268.807 71.5941 268.854 71.81 268.822 72.011C269.059 72.122 269.294 72.2361 269.537 72.3371C270.417 72.7041 270.029 74.1551 269.138 73.7841C268.692 73.5981 268.262 73.391 267.838 73.175V74.8111H203.74V85.3111H245.213V88.179H245.428V99.8111H278.262V88.179H287.852V59.6071H278.261V59.606ZM215.589 58.6801H211.263V54.3541H215.589V58.6801ZM226.175 55.563H219.175V48.563H226.175V55.563ZM247.825 59.606H237.716L247.825 44.1611V59.606ZM248.013 14.5171V7.51706H255.013V14.5171H248.013ZM259.005 21.5131H254.679V17.1871H259.005V21.5131ZM271.161 33.4301H268.462V36.5601H260.462V25.5601H268.462V29.1031H271.161V33.4301Z" fill="#CB193B"/>
<path d="M17.3681 56.106H7.89307V63.106H17.3681V56.106Z" fill="#CB193B"/>
<path d="M105.231 22.057H98.2311V29.057H105.231V22.057Z" fill="#CB193B"/>
<path d="M111.42 26.064H107.094V30.39H111.42V26.064Z" fill="#CB193B"/>
<path d="M211.002 39.063H201.526V46.063H211.002V39.063Z" fill="#CB193B"/>
<path d="M289.388 14.5131H282.388V21.5131H289.388V14.5131Z" fill="#CB193B"/>
<path d="M295.578 18.52H291.252V22.846H295.578V18.52Z" fill="#CB193B"/>
<path d="M214.514 32.557H210.188V36.883H214.514V32.557Z" fill="#CB193B"/>
<path d="M193.893 12.017H189.6V16.31H193.893V12.017Z" fill="#CB193B"/>
</g>
<g opacity="0.2611">
<path d="M95.8771 48.6401H89.911V41.6401H95.8771V32.5571H90.495V25.5571H95.8771V20.1851H75.5731V18.9351H95.8771V17.5601H72.2401V15.0601H95.8771V5.06006H60.9751L52.6491 16.9351H62.3861V18.1851H51.773L50.8091 19.5601H60.387V22.0601H49.0561L21.3571 61.5641V69.3781H56.717V71.2581H21.3571V75.8101H84.3971V77.0601H21.3571V86.3101H62.4631V88.1781H63.0441V102.06H95.8781V88.1781H105.468V81.9331H98.6261V77.0601H105.468V59.606H95.8781V48.6401H95.8771ZM30.9871 66.2231H26.661V61.8971H30.9871V66.2231ZM41.5741 63.106H34.5741V56.106H41.5741V63.106ZM63.4121 15.0601H70.4121V22.0601H63.4121V15.0601ZM65.441 59.606H55.3321L65.441 44.1611V59.606ZM74.4031 29.0571H74.2121V31.0601H62.2121V23.0601H74.2121V24.7301H74.4031V29.0571ZM86.5601 40.9731H84.9631V43.0601H75.7131V35.8101H84.9631V36.6471H86.5601V40.9731Z" fill="#CB193B"/>
<path d="M194.801 61.835C195.174 58.496 195.372 54.973 195.372 51.251C195.372 41.296 194.01 32.707 191.379 25.557H160.575V20.684H189.289C182.623 7.39102 170.613 0.338013 153.917 0.338013C144.086 0.338013 135.886 2.79201 129.438 7.51701H169.242V10.017H126.42C117.289 18.52 112.461 32.466 112.461 51.251C112.461 61.254 113.829 69.883 116.472 77.061H145.19V81.934H144.464V83.311H119.3C119.771 84.169 120.256 85.009 120.773 85.811H164.573V88.311H122.545C129.571 97.474 140.145 102.296 153.915 102.296C177.051 102.296 191.183 88.708 194.569 63.716H173.4V61.836H194.801V61.835ZM171.655 12.017H175.948V16.31H171.655V12.017ZM153.916 71.327C145.996 71.327 144.494 64.271 144.494 51.251C144.494 38.317 145.995 31.308 153.916 31.308C161.723 31.308 163.204 38.317 163.204 51.251C163.203 64.271 161.723 71.327 153.916 71.327Z" fill="#CB193B"/>
<path d="M246.928 65.685C242.816 64.802 238.631 64.033 234.465 63.715H203.295V65.685H246.928Z" fill="#CB193B"/>
<path d="M277.817 59.606V41.0961H274.069V34.0961H277.817V25.0131H274.653V18.0131H277.817V12.6411H259.731V11.3911H277.817V10.0161H256.398V7.51607H277.817V4.39307H243.383L239.878 9.39107H246.543V10.6411H239.001L238.037 12.0161H244.543V14.5161H236.284L203.295 61.563V61.8341H240.873V63.0181C244.253 63.5831 247.611 64.3221 250.928 65.0421C251.859 65.2441 252.787 65.4591 253.713 65.6841H260.775L254.806 59.7151C254.122 59.0311 255.183 57.9701 255.867 58.6541L262.898 65.6851H267.837V68.2671H268.553V69.5171H267.837V70.6241L268.618 71.4051C268.807 71.5941 268.854 71.81 268.822 72.011C269.059 72.122 269.294 72.2361 269.537 72.3371C270.417 72.7041 270.029 74.1551 269.138 73.7841C268.692 73.5981 268.262 73.391 267.838 73.175V74.8111H203.296V85.3111H245.213V93.3111H244.983V99.8111H277.817V88.179H287.407V59.6071H277.817V59.606ZM215.144 58.6801H210.818V54.3541H215.144V58.6801ZM225.731 55.563H218.731V48.563H225.731V55.563ZM247.38 59.606H237.271L247.38 44.1611V59.606ZM247.569 14.5171V7.51706H254.569V14.5171H247.569ZM258.561 21.5131H254.235V17.1871H258.561V21.5131ZM270.717 33.4301H268.462V36.5601H260.462V25.5601H268.462V29.1031H270.717V33.4301Z" fill="#CB193B"/>
<path d="M16.924 56.106H7.448V63.106H16.924V56.106Z" fill="#CB193B"/>
<path d="M104.787 22.057H97.787V29.057H104.787V22.057Z" fill="#CB193B"/>
<path d="M110.976 26.064H106.65V30.39H110.976V26.064Z" fill="#CB193B"/>
<path d="M210.558 39.063H201.082V46.063H210.558V39.063Z" fill="#CB193B"/>
<path d="M288.944 14.5131H281.944V21.5131H288.944V14.5131Z" fill="#CB193B"/>
<path d="M295.133 18.52H290.807V22.846H295.133V18.52Z" fill="#CB193B"/>
<path d="M214.07 32.557H209.744V36.883H214.07V32.557Z" fill="#CB193B"/>
<path d="M193.448 12.017H189.155V16.31H193.448V12.017Z" fill="#CB193B"/>
</g>
<g opacity="0.3667">
<path d="M95.4331 48.6401H89.4671V41.6401H95.4331V32.5571H90.0511V25.5571H95.4331V20.1851H75.1291V18.9351H95.4331V17.5601H71.7961V15.0601H95.4331V5.06006H60.5311L52.2051 16.9351H61.9421V18.1851H51.3291L50.3651 19.5601H59.9431V22.0601H48.6131L20.9141 61.5641V69.3781H56.2741V71.2581H20.9141V75.8101H83.9541V77.0601H20.9141V86.3101H62.4651V88.1781H62.6011V102.06H95.4351V88.1781H105.025V81.9331H98.1831V77.0601H105.025V59.606H95.4351V48.6401H95.4331ZM30.5421 66.2231H26.2161V61.8971H30.5421V66.2231ZM41.1291 63.106H34.1291V56.106H41.1291V63.106ZM62.9671 15.0601H69.9671V22.0601H62.9671V15.0601ZM64.9961 59.606H54.8871L64.9961 44.1611V59.606ZM74.2121 31.0601H62.2121V23.0601H74.2121V31.0601ZM86.1151 40.9731H84.9621V43.0601H75.7121V35.8101H84.9621V36.6471H86.1151V40.9731Z" fill="#CB193B"/>
<path d="M194.356 61.835C194.729 58.496 194.927 54.973 194.927 51.251C194.927 41.296 193.565 32.707 190.934 25.557H160.13V20.684H188.844C182.178 7.39102 170.168 0.338013 153.472 0.338013C143.641 0.338013 135.441 2.79201 128.993 7.51701H168.797V10.017H125.975C116.844 18.52 112.016 32.466 112.016 51.251C112.016 61.254 113.384 69.883 116.027 77.061H144.745V81.934H144.463V83.311H118.856C119.327 84.169 119.812 85.009 120.329 85.811H164.129V88.311H122.101C129.127 97.474 139.701 102.296 153.471 102.296C176.607 102.296 190.739 88.708 194.125 63.716H172.956V61.836H194.356V61.835ZM171.211 12.017H175.504V16.31H171.211V12.017ZM153.471 71.327C145.551 71.327 144.049 64.271 144.049 51.251C144.049 38.317 145.55 31.308 153.471 31.308C161.278 31.308 162.759 38.317 162.759 51.251C162.759 64.271 161.279 71.327 153.471 71.327Z" fill="#CB193B"/>
<path d="M277.372 59.606V41.0961H273.624V34.0961H277.372V25.0131H274.208V18.0131H277.372V12.6411H259.286V11.3911H277.372V10.0161H255.953V7.51607H277.372V4.39307H242.938L239.433 9.39107H246.098V10.6411H238.556L237.592 12.0161H244.098V14.5161H235.839L202.85 61.563V61.8341H240.428V62.9481C243.958 63.5211 247.466 64.2901 250.927 65.0421C251.858 65.2441 252.786 65.4591 253.712 65.6841H260.774L254.805 59.7151C254.121 59.0311 255.182 57.9701 255.866 58.6541L262.897 65.6851H267.836V68.2671H268.108V69.5171H267.836V70.6241L268.617 71.4051C268.806 71.5941 268.853 71.81 268.821 72.011C269.058 72.122 269.293 72.2361 269.536 72.3371C270.416 72.7041 270.028 74.1551 269.137 73.7841C268.691 73.5981 268.261 73.391 267.837 73.175V74.8111H202.85V85.3111H245.212V93.3111H244.538V99.8111H277.372V88.179H286.962V59.6071H277.372V59.606ZM214.7 58.6801H210.374V54.3541H214.7V58.6801ZM225.286 55.563H218.286V48.563H225.286V55.563ZM246.936 59.606H236.827L246.936 44.1611V59.606ZM247.125 14.5171V7.51706H254.125V14.5171H247.125ZM258.116 21.5131H253.79V17.1871H258.116V21.5131ZM270.273 33.4301H268.463V36.5601H260.463V25.5601H268.463V29.1031H270.273V33.4301Z" fill="#CB193B"/>
<path d="M246.928 65.685C242.816 64.802 238.631 64.033 234.465 63.715H202.851V65.685H246.928Z" fill="#CB193B"/>
<path d="M16.48 56.106H7.00403V63.106H16.48V56.106Z" fill="#CB193B"/>
<path d="M104.342 22.057H97.342V29.057H104.342V22.057Z" fill="#CB193B"/>
<path d="M110.531 26.064H106.205V30.39H110.531V26.064Z" fill="#CB193B"/>
<path d="M210.113 39.063H200.637V46.063H210.113V39.063Z" fill="#CB193B"/>
<path d="M288.5 14.5131H281.5V21.5131H288.5V14.5131Z" fill="#CB193B"/>
<path d="M294.689 18.52H290.363V22.846H294.689V18.52Z" fill="#CB193B"/>
<path d="M213.625 32.557H209.299V36.883H213.625V32.557Z" fill="#CB193B"/>
<path d="M193.004 12.017H188.711V16.31H193.004V12.017Z" fill="#CB193B"/>
</g>
<g opacity="0.4722">
<path d="M94.9881 48.6401H89.0231V41.6401H94.9881V32.5571H89.6061V25.5571H94.9881V20.1851H74.6841V18.9351H94.9881V17.5601H71.3511V15.0601H94.9881V5.06006H60.0861L51.7591 16.9351H61.4961V18.1851H50.8831L49.9191 19.5601H59.4961V22.0601H48.1651L20.4661 61.5641V69.3781H55.8261V71.2581H20.4661V75.8101H83.5061V77.0601H20.4661V86.3101H62.4611V94.8101H62.1531V102.06H94.9871V88.1781H104.577V81.9331H97.7351V77.0601H104.577V59.606H94.9871V48.6401H94.9881ZM30.0981 66.2231H25.7721V61.8971H30.0981V66.2231ZM40.6851 63.106H33.6851V56.106H40.6851V63.106ZM62.5231 15.0601H69.5231V22.0601H62.5231V15.0601ZM64.5521 59.606H54.4431L64.5521 44.1611V59.606ZM74.2121 31.0601H62.2121V23.0601H74.2121V31.0601ZM85.6711 40.9731H84.9631V43.0601H75.7131V35.8101H84.9631V36.6471H85.6711V40.9731Z" fill="#CB193B"/>
<path d="M193.912 61.835C194.285 58.496 194.483 54.973 194.483 51.251C194.483 41.296 193.121 32.707 190.49 25.557H159.686V20.684H188.4C181.734 7.39102 169.724 0.338013 153.028 0.338013C143.197 0.338013 134.997 2.79201 128.549 7.51701H168.353V10.017H125.53C116.399 18.52 111.571 32.466 111.571 51.251C111.571 61.254 112.939 69.883 115.582 77.061H144.3V79.811H144.463V83.311H118.412C118.883 84.169 119.368 85.009 119.885 85.811H163.685V88.311H121.657C128.683 97.474 139.257 102.296 153.027 102.296C176.164 102.296 190.295 88.708 193.681 63.716H172.512V61.836H193.912V61.835ZM170.766 12.017H175.059V16.31H170.766V12.017ZM153.027 71.327C145.107 71.327 143.605 64.271 143.605 51.251C143.605 38.317 145.106 31.308 153.027 31.308C160.834 31.308 162.315 38.317 162.315 51.251C162.314 64.271 160.834 71.327 153.027 71.327Z" fill="#CB193B"/>
<path d="M246.928 65.685C242.816 64.802 238.631 64.033 234.465 63.715H202.406V65.685H246.928Z" fill="#CB193B"/>
<path d="M276.928 59.606V41.0961H273.18V34.0961H276.928V25.0131H273.764V18.0131H276.928V12.6411H258.842V11.3911H276.928V10.0161H255.509V7.51607H276.928V4.39307H242.494L238.989 9.39107H245.654V10.6411H238.112L237.148 12.0161H243.654V14.5161H235.395L202.406 61.563V61.8341H239.984V62.8781C243.664 63.4571 247.321 64.2591 250.928 65.0421C251.859 65.2441 252.787 65.4591 253.713 65.6841H260.775L254.806 59.7151C254.122 59.0311 255.183 57.9701 255.867 58.6541L262.898 65.6851H267.837V70.6241L268.618 71.4051C268.807 71.5941 268.854 71.81 268.822 72.011C269.059 72.122 269.294 72.2361 269.537 72.3371C270.417 72.7041 270.029 74.1551 269.138 73.7841C268.692 73.5981 268.262 73.391 267.838 73.175V74.8111H202.407V85.3111H245.213V93.3111H244.094V99.8111H276.928V88.179H286.518V59.6071H276.928V59.606ZM214.255 58.6801H209.929V54.3541H214.255V58.6801ZM224.842 55.563H217.842V48.563H224.842V55.563ZM246.491 59.606H236.382L246.491 44.1611V59.606ZM246.68 14.5171V7.51706H253.68V14.5171H246.68ZM257.672 21.5131H253.346V17.1871H257.672V21.5131ZM269.828 33.4301H268.462V36.5601H260.462V25.5601H268.462V29.1031H269.828V33.4301Z" fill="#CB193B"/>
<path d="M16.0361 56.106H6.56006V63.106H16.0361V56.106Z" fill="#CB193B"/>
<path d="M103.898 22.057H96.8981V29.057H103.898V22.057Z" fill="#CB193B"/>
<path d="M110.087 26.064H105.761V30.39H110.087V26.064Z" fill="#CB193B"/>
<path d="M209.669 39.063H200.193V46.063H209.669V39.063Z" fill="#CB193B"/>
<path d="M288.055 14.5131H281.055V21.5131H288.055V14.5131Z" fill="#CB193B"/>
<path d="M294.244 18.52H289.918V22.846H294.244V18.52Z" fill="#CB193B"/>
<path d="M213.181 32.557H208.855V36.883H213.181V32.557Z" fill="#CB193B"/>
<path d="M192.559 12.017H188.266V16.31H192.559V12.017Z" fill="#CB193B"/>
</g>
<g opacity="0.5778">
<path d="M94.5441 48.6401H88.578V41.6401H94.5441V32.5571H89.162V25.5571H94.5441V20.1851H74.2401V18.9351H94.5441V17.5601H70.907V15.0601H94.5441V5.06006H59.642L51.315 16.9351H61.052V18.1851H50.439L49.4751 19.5601H59.053V22.0601H47.7231L20.024 61.5641V69.3781H55.384V71.2581H20.024V75.8101H83.064V77.0601H20.024V86.3101H62.4641V94.8101H61.711V102.06H94.545V88.1781H104.135V81.9331H97.293V77.0601H104.135V59.606H94.545L94.5441 48.6401ZM29.653 66.2231H25.327V61.8971H29.653V66.2231ZM40.2401 63.106H33.2401V56.106H40.2401V63.106ZM62.078 15.0601H69.078V22.0601H62.078V15.0601ZM64.107 59.606H53.998L64.107 44.1611V59.606ZM74.2121 31.0601H62.2121V23.0601H74.2121V31.0601ZM85.226 40.9731H84.9621V43.0601H75.7121V35.8101H84.9621V36.6471H85.226V40.9731Z" fill="#CB193B"/>
<path d="M193.467 61.835C193.84 58.496 194.038 54.973 194.038 51.251C194.038 41.296 192.676 32.707 190.045 25.557H159.24V20.684H187.954C181.288 7.39102 169.278 0.338013 152.582 0.338013C142.751 0.338013 134.551 2.79201 128.103 7.51701H167.907V10.017H125.085C115.954 18.52 111.126 32.466 111.126 51.251C111.126 61.254 112.494 69.883 115.137 77.061H143.855V79.811H144.462V83.311H117.966C118.437 84.169 118.922 85.009 119.439 85.811H163.239V88.311H121.211C128.237 97.474 138.811 102.296 152.581 102.296C175.717 102.296 189.849 88.708 193.235 63.716H172.066V61.836H193.467V61.835ZM170.322 12.017H174.615V16.31H170.322V12.017ZM152.582 71.327C144.662 71.327 143.16 64.271 143.16 51.251C143.16 38.317 144.661 31.308 152.582 31.308C160.389 31.308 161.87 38.317 161.87 51.251C161.87 64.271 160.39 71.327 152.582 71.327Z" fill="#CB193B"/>
<path d="M246.928 65.685C242.816 64.802 238.631 64.033 234.465 63.715H201.962V65.685H246.928Z" fill="#CB193B"/>
<path d="M276.483 59.606V41.0961H272.735V34.0961H276.483V25.0131H273.319V18.0131H276.483V12.6411H258.397V11.3911H276.483V10.0161H255.064V7.51607H276.483V4.39307H242.05L238.545 9.39107H245.21V10.6411H237.668L236.704 12.0161H243.21V14.5161H234.951L201.962 61.563V61.8341H239.54V62.8081C243.37 63.3911 247.176 64.2271 250.928 65.0421C251.859 65.2441 252.787 65.4591 253.713 65.6841H260.775L254.806 59.7151C254.122 59.0311 255.183 57.9701 255.867 58.6541L262.898 65.6851H267.837V70.6241L268.618 71.4051C268.807 71.5941 268.854 71.81 268.822 72.011C269.059 72.122 269.294 72.2361 269.537 72.3371C270.417 72.7041 270.029 74.1551 269.138 73.7841C268.692 73.5981 268.262 73.391 267.838 73.175V74.8111H201.962V85.3111H245.213V93.3111H243.65V99.8111H276.484V88.179H286.074V59.6071H276.483V59.606ZM213.811 58.6801H209.485V54.3541H213.811V58.6801ZM224.398 55.563H217.398V48.563H224.398V55.563ZM246.047 59.606H235.938L246.047 44.1611V59.606ZM246.236 14.5171V7.51706H253.236V14.5171H246.236ZM257.227 21.5131H252.901V17.1871H257.227V21.5131ZM269.384 33.4301H268.463V36.5601H260.463V25.5601H268.463V29.1031H269.384V33.4301Z" fill="#CB193B"/>
<path d="M15.591 56.106H6.11499V63.106H15.591V56.106Z" fill="#CB193B"/>
<path d="M103.453 22.057H96.453V29.057H103.453V22.057Z" fill="#CB193B"/>
<path d="M109.643 26.064H105.317V30.39H109.643V26.064Z" fill="#CB193B"/>
<path d="M209.224 39.063H199.748V46.063H209.224V39.063Z" fill="#CB193B"/>
<path d="M287.611 14.5131H280.611V21.5131H287.611V14.5131Z" fill="#CB193B"/>
<path d="M293.8 18.52H289.474V22.846H293.8V18.52Z" fill="#CB193B"/>
<path d="M212.736 32.557H208.41V36.883H212.736V32.557Z" fill="#CB193B"/>
<path d="M192.115 12.017H187.822V16.31H192.115V12.017Z" fill="#CB193B"/>
</g>
<g opacity="0.6833">
<path d="M94.099 48.6401H88.134V41.6401H94.099V32.5571H88.717V25.5571H94.099V20.1851H73.795V18.9351H94.099V17.5601H70.462V15.0601H94.099V5.06006H59.197L50.87 16.9351H60.607V18.1851H49.994L49.03 19.5601H58.608V22.0601H47.277L19.578 61.5641V69.3781H54.938V71.2581H19.578V75.8101H82.618V77.0601H19.578V86.3101H62.462V94.8101H61.265V102.06H94.099V88.1781H103.689V81.9331H96.847V77.0601H103.689V59.606H94.099V48.6401ZM29.209 66.2231H24.883V61.8971H29.209V66.2231ZM39.796 63.106H32.796V56.106H39.796V63.106ZM61.634 15.0601H68.634V22.0601H61.634V15.0601ZM63.663 59.606H53.554L63.663 44.1611V59.606ZM74.212 31.0601H62.212V23.0601H74.212V31.0601ZM84.962 43.0601H75.712V35.8101H84.962V43.0601Z" fill="#CB193B"/>
<path d="M193.023 61.835C193.396 58.496 193.594 54.973 193.594 51.251C193.594 41.296 192.232 32.707 189.6 25.557H158.796V20.684H187.51C180.844 7.39102 168.834 0.338013 152.138 0.338013C142.307 0.338013 134.106 2.79201 127.659 7.51701H167.463V10.017H124.641C115.51 18.52 110.682 32.466 110.682 51.251C110.682 61.254 112.05 69.883 114.693 77.061H143.411V79.811H144.462V83.311H117.522C117.992 84.169 118.478 85.009 118.995 85.811H162.795V88.311H120.767C127.793 97.474 138.367 102.296 152.137 102.296C175.274 102.296 189.405 88.708 192.791 63.716H171.622V61.836H193.023V61.835ZM169.877 12.017H174.17V16.31H169.877V12.017ZM152.138 71.327C144.218 71.327 142.716 64.271 142.716 51.251C142.716 38.317 144.217 31.308 152.138 31.308C159.945 31.308 161.426 38.317 161.426 51.251C161.426 64.271 159.945 71.327 152.138 71.327Z" fill="#CB193B"/>
<path d="M246.928 65.685C242.816 64.802 238.631 64.033 234.465 63.715H201.517V65.685H246.928Z" fill="#CB193B"/>
<path d="M276.039 59.606V41.0961H272.291V34.0961H276.039V25.0131H272.875V18.0131H276.039V12.6411H257.953V11.3911H276.039V10.0161H254.62V7.51607H276.039V4.39307H241.605L238.1 9.39107H244.765V10.6411H237.223L236.259 12.0161H242.765V14.5161H234.506L201.517 61.563V61.8341H239.095V62.7381C243.076 63.3221 247.031 64.1961 250.928 65.0421C251.859 65.2441 252.787 65.4591 253.713 65.6841H260.775L254.806 59.7151C254.122 59.0311 255.183 57.9701 255.867 58.6541L262.898 65.6851H267.837V70.6241L268.618 71.4051C268.807 71.5941 268.854 71.81 268.822 72.011C269.059 72.122 269.294 72.2361 269.537 72.3371C270.417 72.7041 270.029 74.1551 269.138 73.7841C268.692 73.5981 268.262 73.391 267.838 73.175V74.8111H201.518V85.3111H245.213V93.3111H243.205V99.8111H276.039V88.179H285.629V59.6071H276.039V59.606ZM213.366 58.6801H209.04V54.3541H213.366V58.6801ZM223.953 55.563H216.953V48.563H223.953V55.563ZM245.602 59.606H235.493L245.602 44.1611V59.606ZM245.791 14.5171V7.51706H252.791V14.5171H245.791ZM256.783 21.5131H252.457V17.1871H256.783V21.5131ZM268.939 33.4301H268.462V36.5601H260.462V25.5601H268.462V29.1031H268.939V33.4301Z" fill="#CB193B"/>
<path d="M15.147 56.106H5.67102V63.106H15.147V56.106Z" fill="#CB193B"/>
<path d="M103.009 22.057H96.009V29.057H103.009V22.057Z" fill="#CB193B"/>
<path d="M109.198 26.064H104.872V30.39H109.198V26.064Z" fill="#CB193B"/>
<path d="M208.78 39.063H199.304V46.063H208.78V39.063Z" fill="#CB193B"/>
<path d="M287.166 14.5131H280.166V21.5131H287.166V14.5131Z" fill="#CB193B"/>
<path d="M293.356 18.52H289.03V22.846H293.356V18.52Z" fill="#CB193B"/>
<path d="M212.292 32.557H207.966V36.883H212.292V32.557Z" fill="#CB193B"/>
<path d="M191.67 12.017H187.377V16.31H191.67V12.017Z" fill="#CB193B"/>
</g>
<g opacity="0.7889">
<path d="M93.655 48.6401H87.69V41.6401H93.655V32.5571H88.273V25.5571H93.655V20.1851H73.351V18.9351H93.655V17.5601H70.018V15.0601H93.655V5.06006H58.753L50.426 16.9351H60.163V18.1851H49.55L48.586 19.5601H58.164V22.0601H46.833L19.134 61.5641V69.3781H54.494V71.2581H19.134V75.8101H82.174V77.0601H19.134V86.3101H62.462V94.8101H60.821V102.06H93.655V88.1781H103.245V81.9331H96.403V77.0601H103.245V59.606H93.655V48.6401ZM28.764 66.2231H24.438V61.8971H28.764V66.2231ZM39.351 63.106H32.351V56.106H39.351V63.106ZM61.189 15.0601H68.189V22.0601H61.189V15.0601ZM63.218 59.606H53.109L63.218 44.1611V59.606ZM74.212 31.0601H62.212V23.0601H74.212V31.0601ZM84.962 43.0601H75.712V35.8101H84.962V43.0601Z" fill="#CB193B"/>
<path d="M192.578 61.835C192.951 58.496 193.149 54.973 193.149 51.251C193.149 41.296 191.787 32.707 189.155 25.557H158.351V20.684H187.065C180.399 7.39102 168.389 0.338013 151.693 0.338013C141.862 0.338013 133.662 2.79201 127.214 7.51701H167.018V10.017H124.196C115.065 18.52 110.237 32.466 110.237 51.251C110.237 61.254 111.605 69.883 114.248 77.061H142.966V79.811H144.462V83.311H117.077C117.548 84.169 118.033 85.009 118.55 85.811H162.35V88.311H120.322C127.348 97.474 137.922 102.296 151.692 102.296C174.828 102.296 188.96 88.708 192.346 63.716H171.177V61.836H192.578V61.835ZM169.433 12.017H173.726V16.31H169.433V12.017ZM151.694 71.327C143.774 71.327 142.272 64.271 142.272 51.251C142.272 38.317 143.773 31.308 151.694 31.308C159.501 31.308 160.982 38.317 160.982 51.251C160.981 64.271 159.501 71.327 151.694 71.327Z" fill="#CB193B"/>
<path d="M246.928 65.685C242.816 64.802 238.631 64.033 234.465 63.715H201.073V65.685H246.928Z" fill="#CB193B"/>
<path d="M275.594 59.606V41.0961H271.846V34.0961H275.594V25.0131H272.43V18.0131H275.594V12.6411H257.508V11.3911H275.594V10.0161H254.175V7.51607H275.594V4.39307H241.16L237.655 9.39107H244.32V10.6411H236.778L235.814 12.0161H242.32V14.5161H234.061L201.072 61.563V61.8341H238.65V62.6731C242.781 63.2561 246.885 64.1641 250.927 65.0421C251.858 65.2441 252.786 65.4591 253.712 65.6841H260.774L254.805 59.7151C254.121 59.0311 255.182 57.9701 255.866 58.6541L262.897 65.6851H267.836V70.6241L268.617 71.4051C268.806 71.5941 268.853 71.81 268.821 72.011C269.058 72.122 269.293 72.2361 269.536 72.3371C270.416 72.7041 270.028 74.1551 269.137 73.7841C268.691 73.5981 268.261 73.391 267.837 73.175V74.8111H201.073V85.3111H245.212V93.3111H242.76V99.8111H275.594V88.179H285.184V59.6071H275.594V59.606ZM212.922 58.6801H208.596V54.3541H212.922V58.6801ZM223.509 55.563H216.509V48.563H223.509V55.563ZM245.158 59.606H235.049L245.158 44.1611V59.606ZM245.347 14.5171V7.51706H252.347V14.5171H245.347ZM256.339 21.5131H252.013V17.1871H256.339V21.5131ZM268.495 33.4301H268.463V36.5601H260.463V25.5601H268.463V29.1031H268.495V33.4301Z" fill="#CB193B"/>
<path d="M14.7021 56.106H5.22607V63.106H14.7021V56.106Z" fill="#CB193B"/>
<path d="M102.564 22.057H95.5641V29.057H102.564V22.057Z" fill="#CB193B"/>
<path d="M108.754 26.064H104.428V30.39H108.754V26.064Z" fill="#CB193B"/>
<path d="M208.335 39.063H198.859V46.063H208.335V39.063Z" fill="#CB193B"/>
<path d="M286.722 14.5131H279.722V21.5131H286.722V14.5131Z" fill="#CB193B"/>
<path d="M292.911 18.52H288.585V22.846H292.911V18.52Z" fill="#CB193B"/>
<path d="M211.847 32.557H207.521V36.883H211.847V32.557Z" fill="#CB193B"/>
<path d="M191.226 12.017H186.933V16.31H191.226V12.017Z" fill="#CB193B"/>
</g>
<g opacity="0.8944">
<path d="M93.211 48.6401H87.245V41.6401H93.211V32.5571H87.829V25.5571H93.211V20.1851H72.907V18.9351H93.211V17.5601H69.574V15.0601H93.211V5.06006H58.309L49.982 16.9351H59.719V18.1851H49.106L48.142 19.5601H57.72V22.0601H46.39L18.691 61.5641V69.3781H54.051V71.2581H18.691V75.8101H81.731V77.0601H18.691V86.3101H62.464V94.8101H60.378V102.06H93.212V88.1781H102.802V81.9331H95.96V77.0601H102.802V59.606H93.212V48.6401H93.211ZM28.32 66.2231H23.994V61.8971H28.32V66.2231ZM38.907 63.106H31.907V56.106H38.907V63.106ZM60.745 15.0601H67.745V22.0601H60.745V15.0601ZM62.774 59.606H52.665L62.774 44.1611V59.606ZM74.212 31.0601H62.212V23.0601H74.212V31.0601ZM84.962 43.0601H75.712V35.8101H84.962V43.0601Z" fill="#CB193B"/>
<path d="M192.134 61.835C192.507 58.496 192.705 54.973 192.705 51.251C192.705 41.296 191.343 32.707 188.712 25.557H157.908V20.684H186.622C179.956 7.39102 167.946 0.338013 151.25 0.338013C141.419 0.338013 133.219 2.79201 126.771 7.51701H166.574V10.017H123.753C114.622 18.52 109.794 32.466 109.794 51.251C109.794 61.254 111.162 69.883 113.805 77.061H142.523V79.811H144.463V83.311H116.634C117.105 84.169 117.59 85.009 118.107 85.811H161.907V88.311H119.879C126.905 97.474 137.479 102.296 151.249 102.296C174.385 102.296 188.517 88.708 191.903 63.716H170.734V61.836H192.134V61.835ZM168.988 12.017H173.281V16.31H168.988V12.017ZM151.249 71.327C143.329 71.327 141.827 64.271 141.827 51.251C141.827 38.317 143.328 31.308 151.249 31.308C159.056 31.308 160.537 38.317 160.537 51.251C160.537 64.271 159.056 71.327 151.249 71.327Z" fill="#CB193B"/>
<path d="M246.928 65.685C242.816 64.802 238.631 64.033 234.465 63.715H200.629V65.685H246.928Z" fill="#CB193B"/>
<path d="M275.15 59.606V41.0961H271.402V34.0961H275.15V25.0131H271.986V18.0131H275.15V12.6411H257.064V11.3911H275.15V10.0161H253.731V7.51607H275.15V4.39307H240.716L237.211 9.39107H243.876V10.6411H236.334L235.37 12.0161H241.876V14.5161H233.617L200.628 61.563V61.8341H238.206V62.6171C242.487 63.1961 246.74 64.1331 250.928 65.0421C251.859 65.2441 252.787 65.4591 253.713 65.6841H260.775L254.806 59.7151C254.122 59.0311 255.183 57.9701 255.867 58.6541L262.898 65.6851H267.837V70.6241L268.618 71.4051C268.807 71.5941 268.854 71.81 268.822 72.011C269.059 72.122 269.294 72.2361 269.537 72.3371C270.417 72.7041 270.029 74.1551 269.138 73.7841C268.692 73.5981 268.262 73.391 267.838 73.175V74.8111H200.629V85.3111H245.213V93.3111H242.317V99.8111H275.151V88.179H284.741V59.6071H275.15V59.606ZM212.477 58.6801H208.151V54.3541H212.477V58.6801ZM223.064 55.563H216.064V48.563H223.064V55.563ZM244.714 59.606H234.605L244.714 44.1611V59.606ZM244.902 14.5171V7.51706H251.902V14.5171H244.902ZM255.894 21.5131H251.568V17.1871H255.894V21.5131ZM268.462 36.5601H260.462V25.5601H268.462V36.5601Z" fill="#CB193B"/>
<path d="M14.258 56.106H4.78198V63.106H14.258V56.106Z" fill="#CB193B"/>
<path d="M102.12 22.057H95.12V29.057H102.12V22.057Z" fill="#CB193B"/>
<path d="M108.309 26.064H103.983V30.39H108.309V26.064Z" fill="#CB193B"/>
<path d="M207.891 39.063H198.415V46.063H207.891V39.063Z" fill="#CB193B"/>
<path d="M286.277 14.5131H279.277V21.5131H286.277V14.5131Z" fill="#CB193B"/>
<path d="M292.467 18.52H288.141V22.846H292.467V18.52Z" fill="#CB193B"/>
<path d="M211.403 32.557H207.077V36.883H211.403V32.557Z" fill="#CB193B"/>
<path d="M190.781 12.017H186.488V16.31H190.781V12.017Z" fill="#CB193B"/>
</g>
<path d="M92.7661 48.6401H86.8001V41.6401H92.7661V32.5571H87.3841V25.5571H92.7661V20.1851H72.4621V18.9351H92.7661V17.5601H69.1291V15.0601H92.7661V5.06006H57.8641L49.5381 16.9351H59.2751V18.1851H48.6621L47.6981 19.5601H57.2761V22.0601H45.9451L18.2461 61.5641V69.3781H53.6061V71.2581H18.2461V75.8101H81.2861V77.0601H18.2461V86.3101H62.4631V94.8101H59.9331V102.06H92.7671V88.1781H102.357V81.9331H95.5151V77.0601H102.357V59.606H92.7671L92.7661 48.6401ZM27.8761 66.2231H23.5501V61.8971H27.8761V66.2231ZM38.4621 63.106H31.4621V56.106H38.4621V63.106ZM60.3001 15.0601H67.3001V22.0601H60.3001V15.0601ZM62.3301 59.606H52.2201L62.3291 44.1611V59.606H62.3301ZM74.2121 31.0601H62.2121V23.0601H74.2121V31.0601ZM84.9621 43.0601H75.7121V35.8101H84.9621V43.0601Z" fill="#CB193B"/>
<path d="M191.689 61.835C192.062 58.496 192.26 54.973 192.26 51.251C192.26 41.296 190.898 32.707 188.266 25.557H157.462V20.684H186.176C179.51 7.39102 167.5 0.338013 150.804 0.338013C140.973 0.338013 132.773 2.79201 126.325 7.51701H166.129V10.017H123.307C114.176 18.52 109.348 32.466 109.348 51.251C109.348 61.254 110.716 69.883 113.359 77.061H142.077V79.811H144.462V83.311H116.188C116.659 84.169 117.144 85.009 117.661 85.811H161.461V88.311H119.433C126.459 97.474 137.033 102.296 150.803 102.296C173.94 102.296 188.071 88.708 191.457 63.716H170.29V61.836H191.689V61.835ZM168.544 12.017H172.837V16.31H168.544V12.017ZM150.805 71.327C142.885 71.327 141.383 64.271 141.383 51.251C141.383 38.317 142.884 31.308 150.805 31.308C158.612 31.308 160.093 38.317 160.093 51.251C160.092 64.271 158.612 71.327 150.805 71.327Z" fill="#CB193B"/>
<path d="M246.928 65.685C242.816 64.802 238.631 64.033 234.465 63.715H200.184V65.685H246.928Z" fill="#CB193B"/>
<path d="M274.706 59.606V41.0961H270.958V34.0961H274.706V25.0131H271.542V18.0131H274.706V12.6411H256.62V11.3911H274.706V10.0161H253.287V7.51607H274.706V4.39307H240.272L236.767 9.39107H243.432V10.6411H235.89L234.926 12.0161H241.432V14.5161H233.173L200.184 61.563V61.8341H237.762V62.5601C242.193 63.1321 246.596 64.1011 250.928 65.0421C251.859 65.2441 252.787 65.4591 253.713 65.6841H260.775L254.806 59.7151C254.122 59.0311 255.183 57.9701 255.867 58.6541L262.898 65.6851H267.837V70.6241L268.618 71.4051C268.807 71.5941 268.854 71.81 268.822 72.011C269.059 72.122 269.294 72.2361 269.537 72.3371C270.417 72.7041 270.029 74.1551 269.138 73.7841C268.692 73.5981 268.262 73.391 267.838 73.175V74.8111H200.185V85.3111H245.213V93.3111H241.872V99.8111H274.706V88.179H284.296V59.6071H274.706V59.606ZM212.033 58.6801H207.707V54.3541H212.033V58.6801ZM222.62 55.563H215.62V48.563H222.62V55.563ZM244.269 59.606H234.16L244.269 44.1611V59.606ZM244.458 14.5171V7.51706H251.458V14.5171H244.458ZM255.45 21.5131H251.124V17.1871H255.45V21.5131ZM268.462 36.5601H260.462V25.5601H268.462V36.5601Z" fill="#CB193B"/>
<path d="M13.813 56.106H4.33704V63.106H13.813V56.106Z" fill="#CB193B"/>
<path d="M101.675 22.057H94.675V29.057H101.675V22.057Z" fill="#CB193B"/>
<path d="M107.865 26.064H103.539V30.39H107.865V26.064Z" fill="#CB193B"/>
<path d="M207.446 39.063H197.97V46.063H207.446V39.063Z" fill="#CB193B"/>
<path d="M285.833 14.5131H278.833V21.5131H285.833V14.5131Z" fill="#CB193B"/>
<path d="M292.022 18.52H287.696V22.846H292.022V18.52Z" fill="#CB193B"/>
<path d="M210.959 32.557H206.633V36.883H210.959V32.557Z" fill="#CB193B"/>
<path d="M190.337 12.017H186.044V16.31H190.337V12.017Z" fill="#CB193B"/>
<path d="M94.5141 77.0601H101.356V59.6061H91.7661V48.6401H85.8001V41.6401H91.7661V32.5571H86.3841V25.5571H91.7661V20.1851H71.4621V18.9351H91.7661V17.5601H68.1291V15.0601H91.7661V3.93408H57.6541L48.5381 16.9351H58.2751V18.1851H47.6621L46.6981 19.5601H56.2761V22.0601H44.9451L17.2461 61.5641V69.3781H52.6061V71.2581H17.2461V75.8101H80.2861V77.0601H17.2461V88.1781H58.9331V102.828H91.7671V88.1781H101.357V81.9331H94.5151L94.5141 77.0601ZM59.3001 15.0601H66.3001V22.0601H59.3001V15.0601ZM26.8761 66.2231H22.5501V61.8971H26.8761V66.2231ZM37.4621 63.1061H30.4621V56.1061H37.4621V63.1061ZM61.3301 59.6061H51.2201L61.3291 44.1611V59.6061H61.3301ZM70.2921 29.0571H65.9661V24.7311H70.2921V29.0571ZM82.4491 40.9731H78.1231V36.6471H82.4491V40.9731Z" fill="#1D262D"/>
<path d="M169.29 61.835H190.69C191.063 58.496 191.261 54.973 191.261 51.251C191.261 41.296 189.899 32.707 187.267 25.557H156.463V20.684H185.177C178.511 7.39102 166.501 0.338013 149.805 0.338013C139.974 0.338013 131.774 2.79201 125.326 7.51701H165.13V10.017H122.308C113.177 18.52 108.349 32.466 108.349 51.251C108.349 61.254 109.717 69.883 112.36 77.061H141.078V81.934H114.452C115.133 83.292 115.871 84.584 116.662 85.811H160.462V88.311H118.434C125.46 97.474 136.034 102.296 149.804 102.296C172.941 102.296 187.072 88.708 190.458 63.716H169.29V61.835ZM167.544 12.017H171.837V16.31H167.544V12.017ZM149.805 71.327C141.885 71.327 140.383 64.271 140.383 51.251C140.383 38.317 141.884 31.308 149.805 31.308C157.612 31.308 159.093 38.317 159.093 51.251C159.092 64.271 157.612 71.327 149.805 71.327Z" fill="#1D262D"/>
<path d="M273.706 41.0971H269.958V34.0971H273.706V25.0141H270.542V18.0141H273.706V12.6421H255.62V11.3921H273.706V10.0171H252.287V7.51707H273.706V3.93408H239.595L235.768 9.39207H242.433V10.6421H234.891L233.927 12.0171H240.433V14.5171H232.174L199.185 61.5641V61.8351H236.763V63.7151H199.185V68.2671H264.444V69.5171H199.185V88.1791H240.873V102.829H273.707V88.1791H283.297V59.6071H273.707V41.0971H273.706ZM211.033 58.6801H206.707V54.3541H211.033V58.6801ZM221.62 55.5631H214.62V48.5631H221.62V55.5631ZM243.269 59.6061H233.16L243.269 44.1611V59.6061ZM243.458 7.51707H250.458V14.5171H243.458V7.51707ZM254.45 21.5131H250.124V17.1871H254.45V21.5131ZM266.606 33.4301H262.28V29.1041H266.606V33.4301Z" fill="#1D262D"/>
<path d="M12.813 56.106H3.33704V63.106H12.813V56.106Z" fill="#1D262D"/>
<path d="M100.675 22.057H93.675V29.057H100.675V22.057Z" fill="#1D262D"/>
<path d="M106.865 26.064H102.539V30.39H106.865V26.064Z" fill="#1D262D"/>
<path d="M206.446 39.063H196.97V46.063H206.446V39.063Z" fill="#1D262D"/>
<path d="M284.833 14.5131H277.833V21.5131H284.833V14.5131Z" fill="#1D262D"/>
<path d="M291.022 18.52H286.696V22.846H291.022V18.52Z" fill="#1D262D"/>
<path d="M209.959 32.557H205.633V36.883H209.959V32.557Z" fill="#1D262D"/>
<path d="M189.337 12.017H185.044V16.31H189.337V12.017Z" fill="#1D262D"/>
</svg>
